<?xml version="1.0" standalone="no"?><!DOCTYPE svg PUBLIC "-//W3C//DTD SVG 1.1//EN" "http://www.w3.org/Graphics/SVG/1.1/DTD/svg11.dtd"><svg t="1626164110119" class="icon" viewBox="0 0 1024 1024" version="1.1" xmlns="http://www.w3.org/2000/svg" p-id="8398" xmlns:xlink="http://www.w3.org/1999/xlink" width="200" height="200"><defs><style type="text/css"></style></defs><path d="M105.164714 877.700572h813.670572a73.149714 73.149714 0 0 1 0 146.267429H105.164714a73.149714 73.149714 0 1 1 0-146.267429zM504.608231 100.572857c1.151964 1.27996 1.791944 2.495922 3.039905 3.807881 25.119215 27.83913 60.030124 65.885941 102.812787 112.700478 36.79885 39.35877 72.797725 78.557545 100.956845 108.380613L310.694291 740.776851l-25.663198 25.343208a141.371582 141.371582 0 0 1-99.772882 41.182713H70.797788c-21.343333 0-38.526796-17.663448-38.526796-39.902753v-116.47636a153.27521 153.27521 0 0 1 45.246586-108.924596l21.471329-21.43933L504.608231 100.540858z m61.150089-62.07806A121.084216 121.084216 0 0 1 653.243586 0.895972c32.95897 0 64.509984 13.535577 87.485266 37.534827l36.766851 38.07881c48.382488 50.046436 48.382488 131.131902 0 181.050342l-4.287866 5.11984a19602.267429 19602.267429 0 0 1-207.449517-224.216993z" p-id="8399" fill="#2c2c2c"></path></svg>