<?xml version="1.0" standalone="no"?><!DOCTYPE svg PUBLIC "-//W3C//DTD SVG 1.1//EN" "http://www.w3.org/Graphics/SVG/1.1/DTD/svg11.dtd"><svg t="1626167299127" class="icon" viewBox="0 0 1024 1024" version="1.1" xmlns="http://www.w3.org/2000/svg" p-id="9519" xmlns:xlink="http://www.w3.org/1999/xlink" width="200" height="200"><defs><style type="text/css"></style></defs><path d="M921.6 1024H102.4c-56.32 0-102.4-46.08-102.4-102.4V102.4C0 46.08 46.08 0 102.4 0h256c30.72 0 51.2 20.48 51.2 51.2s-20.48 51.2-51.2 51.2H153.6c-30.72 0-51.2 20.48-51.2 51.2v716.8c0 30.72 20.48 51.2 51.2 51.2h716.8c30.72 0 51.2-20.48 51.2-51.2v-204.8c0-30.72 20.48-51.2 51.2-51.2s51.2 20.48 51.2 51.2v256c0 56.32-46.08 102.4-102.4 102.4z" p-id="9520" fill="#2c2c2c"></path><path d="M358.4 716.8c-15.36 0-25.6-5.12-35.84-15.36-15.36-10.24-20.48-30.72-15.36-46.08L368.64 409.6c0-10.24 5.12-15.36 15.36-25.6L752.64 15.36c20.48-20.48 51.2-20.48 71.68 0l184.32 184.32c20.48 20.48 20.48 51.2 0 71.68l-368.64 368.64c-5.12 5.12-15.36 10.24-25.6 15.36L368.64 716.8H358.4z m245.76-112.64zM465.92 445.44l-35.84 148.48 148.48-35.84 322.56-322.56-112.64-112.64-322.56 322.56z" p-id="9521" fill="#2c2c2c"></path></svg>