<?xml version="1.0" standalone="no"?><!DOCTYPE svg PUBLIC "-//W3C//DTD SVG 1.1//EN" "http://www.w3.org/Graphics/SVG/1.1/DTD/svg11.dtd"><svg t="1626141805344" class="icon" viewBox="0 0 1024 1024" version="1.1" xmlns="http://www.w3.org/2000/svg" p-id="8784" xmlns:xlink="http://www.w3.org/1999/xlink" width="200" height="200"><defs><style type="text/css"></style></defs><path d="M728.554442 892.168084c34.072253 0 61.693305-27.621053 61.693305-61.693305v-111.421979l-329.647158 173.115284h267.953853zM790.247747 241.690947c0-34.072253-27.621053-61.693305-61.693305-61.693305h-57.004463v63.320926a15.807326 15.807326 0 0 1-15.807326 15.807327h-23.778358a15.807326 15.807326 0 0 1-15.807327-15.807327V180.003032H252.162695v63.320926a15.807326 15.807326 0 0 1-15.807327 15.807326h-23.778357a15.807326 15.807326 0 0 1-15.807327-15.807326V180.003032H139.770611c-34.072253 0-61.693305 27.621053-61.693306 61.693305v80.745095h712.170442V241.690947zM162.368674 804.449011a34.848337 34.848337 0 0 1 9.156715-19.553011c9.922021-10.504084 27.265347-15.731874 44.145179-10.358568 29.130105 9.248337 75.382568 19.482947 110.769853 34.374063 2.462989 0.840758 5.141558 0.803032 7.5776-0.113179l85.121347-39.111411c4.214568-2.953432 10.719663-11.765221-0.269473-17.655916l-162.153095-73.21061c-9.075874-3.260632-18.3296-15.893558-3.249853-26.284463 9.582484-7.141053 19.078737-14.664758 28.892969-21.536337 8.693221-6.537432 20.959663-16.766653 36.502905-14.659368 101.295158 9.792674 202.563368 20.399158 303.863916 30.542147 1.622232 0.080842 3.244463-0.237137 4.7104-0.932379a3054.430316 3054.430316 0 0 0 160.816505-76.363453c0.657516-0.312589 1.3312-0.582063 1.988716-0.883873V338.259537H78.077305v492.215242c0 34.072253 27.621053 61.693305 61.693306 61.693305h112.273515l-81.806821-68.424758a23.498105 23.498105 0 0 1-7.868631-19.294315z" fill="#8a8a8a" p-id="8785" data-spm-anchor-id="a313x.7781069.0.i6" class="selected"></path><path d="M212.5824 259.131284h23.778358a15.807326 15.807326 0 0 0 15.807326-15.807326v-118.730105a15.807326 15.807326 0 0 0-15.807326-15.807327h-23.778358a15.807326 15.807326 0 0 0-15.807326 15.807327v118.730105a15.807326 15.807326 0 0 0 15.807326 15.807326zM631.969684 259.131284h23.778358a15.807326 15.807326 0 0 0 15.807326-15.807326v-118.730105a15.807326 15.807326 0 0 0-15.807326-15.807327h-23.778358a15.807326 15.807326 0 0 0-15.807326 15.807327v118.730105a15.807326 15.807326 0 0 0 15.807326 15.807326zM934.205979 581.632c-13.112589-14.449179-41.849263-28.666611-78.325221-28.030653v-0.037726a164.810105 164.810105 0 0 0-65.627621 15.144421c-0.657516 0.301811-1.3312 0.571284-1.988716 0.883874a3063.053474 3063.053474 0 0 1-160.816505 76.363452 9.868126 9.868126 0 0 1-4.7104 0.932379c-101.300547-10.142989-202.568758-20.754863-303.863916-30.542147-15.543242-2.107284-27.809684 8.121937-36.502905 14.659368-9.819621 6.866189-19.315874 14.395284-28.892969 21.536337-15.079747 10.385516-5.820632 23.023832 3.249853 26.284463l162.153095 73.210611c10.989137 5.890695 4.484042 14.697095 0.269473 17.655916l-85.121347 39.11141c-2.436042 0.916211-5.114611 0.959326-7.5776 0.113179-35.387284-14.891116-81.645137-25.131116-110.769853-34.374063-16.879832-5.367916-34.223158-0.145516-44.145179 10.358568a34.869895 34.869895 0 0 0-9.156715 19.553011 23.514274 23.514274 0 0 0 7.874021 19.294316l81.806821 68.424758 16.410947 13.726989c11.274779 9.323789 25.713179 8.008758 36.837053 7.410526 24.198737-1.385095 38.917389-2.349811 62.555621-4.467873a113.243621 113.243621 0 0 0 38.895831-11.220884c177.556211-90.365305 509.353768-268.169432 509.353769-268.169432 25.578442-15.273768 29.766063-35.419621 18.092463-47.8208z" fill="#0D3F70" p-id="8786"></path></svg>