<?xml version="1.0" standalone="no"?><!DOCTYPE svg PUBLIC "-//W3C//DTD SVG 1.1//EN" "http://www.w3.org/Graphics/SVG/1.1/DTD/svg11.dtd"><svg t="1626142062739" class="icon" viewBox="0 0 1056 1024" version="1.1" xmlns="http://www.w3.org/2000/svg" p-id="10046" xmlns:xlink="http://www.w3.org/1999/xlink" width="206.25" height="200"><defs><style type="text/css"></style></defs><path d="M701.121473 1020.252627H36.264904a36.264904 36.264904 0 0 1-36.264904-36.264904V36.264904A36.264904 36.264904 0 0 1 36.264904 0h664.856569a36.264904 36.264904 0 0 1 36.264904 36.264904v947.722819a36.264904 36.264904 0 0 1-36.264904 36.264904zM72.529808 947.722819h592.326761V72.529808H72.529808z" fill="" p-id="10047"></path><path d="M430.053406 356.7983h-153.739016a12.088301 12.088301 0 0 1 0-24.176602h153.739016a12.088301 12.088301 0 0 1 0 24.176602zM430.053406 425.363145h-153.739016a12.088301 12.088301 0 0 1 0-24.176603h153.739016a12.088301 12.088301 0 0 1 0 24.176603z" fill="" p-id="10048"></path><path d="M357.064243 502.873333a12.088301 12.088301 0 0 1-12.088302-12.088302v-146.075032a12.088301 12.088301 0 0 1 24.176603 0V490.785031a12.088301 12.088301 0 0 1-12.088301 12.088302z" fill="" p-id="10049"></path><path d="M351.527801 347.949664a12.088301 12.088301 0 0 1-8.558518-3.529784l-74.101286-74.125464a12.088301 12.088301 0 0 1 17.092858-17.092858l74.101286 74.101287a12.088301 12.088301 0 0 1-8.558517 20.646819z" fill="" p-id="10050"></path><path d="M362.649038 349.061787a12.088301 12.088301 0 0 1-8.558517-20.646818l74.101286-74.101287a12.088301 12.088301 0 0 1 17.092858 17.092858l-74.101286 74.101287a12.088301 12.088301 0 0 1-8.534341 3.55396z" fill="" p-id="10051"></path><path d="M149.894936 350.754149a24.176603 24.176603 0 0 1-23.765601-28.794333 234.706457 234.706457 0 0 1 460.249983-2.224248 24.176603 24.176603 0 1 1-47.361965 9.670641 186.377429 186.377429 0 0 0-365.40517 1.764892 24.176603 24.176603 0 0 1-23.717247 19.583048z" fill="" p-id="10052"></path><path d="M150.330115 351.769567a24.176603 24.176603 0 0 1-9.670642-46.3949l52.850054-22.726007a24.176603 24.176603 0 0 1 19.099516 44.412419l-52.850054 22.726006a24.176603 24.176603 0 0 1-9.428874 1.982482zM359.119254 606.349191a235.383402 235.383402 0 0 1-229.895313-187.392846 24.176603 24.176603 0 1 1 47.361964-9.670641 186.377429 186.377429 0 0 0 365.40517-1.764892 24.176603 24.176603 0 0 1 47.458671 9.235462 234.948223 234.948223 0 0 1-230.330492 189.592917z" fill="" p-id="10053"></path><path d="M512.543974 458.025735a24.176603 24.176603 0 0 1-9.670641-46.3949l52.850053-22.726007a24.176603 24.176603 0 1 1 19.099516 44.412419l-52.850053 22.726006a24.176603 24.176603 0 0 1-9.428875 1.982482zM343.307756 737.386377H169.236218a24.176603 24.176603 0 0 1 0-48.353205h174.071538a24.176603 24.176603 0 0 1 0 48.353205zM546.391217 870.357691H169.236218a24.176603 24.176603 0 0 1 0-48.353205h377.154999a24.176603 24.176603 0 0 1 0 48.353205zM865.52237 227.260064h-48.353205V169.57469a119.674183 119.674183 0 0 1 239.348365 0v55.606186h-48.353205v-55.606186a71.320977 71.320977 0 0 0-142.641955 0z" fill="" p-id="10054"></path><path d="M1056.51753 817.169165h-239.348365V222.424743h239.348365z m-190.99516-48.353205h142.641955V270.777948h-142.641955z" fill="" p-id="10055"></path><path d="M936.674112 1024L817.265872 817.169165l41.873875-24.176602 77.534365 134.301027L1014.208476 792.992563l41.873876 24.176602-119.40824 206.830835zM860.68705 299.789871h149.894936v48.353205h-149.894936z" fill="" p-id="10056"></path><path d="M913.875575 336.054775h48.353206v345.725416h-48.353206z" fill="" p-id="10057"></path></svg>